<svg width="50" height="50" viewBox="0 0 50 50" fill="none" xmlns="http://www.w3.org/2000/svg">
<g clip-path="url(#clip0_1071_834)">
<path d="M0 25C0 11.1929 11.1929 0 25 0C38.8071 0 50 11.1929 50 25C50 38.8071 38.8071 50 25 50C11.1929 50 0 38.8071 0 25Z" fill="#333333"/>
<path d="M20 40C22.7615 40 25 37.7615 25 35V30H20C17.2385 30 15 32.2386 15 35C15 37.7615 17.2385 40 20 40Z" fill="#0ACF83"/>
<path d="M15 25C15 22.2385 17.2385 20 20 20H25V30H20C17.2385 30 15 27.7614 15 25Z" fill="#A259FF"/>
<path d="M15 15C15 12.2386 17.2385 10 20 10H25V20H20C17.2385 20 15 17.7614 15 15Z" fill="#F24E1E"/>
<path d="M25 10H30C32.7615 10 35 12.2386 35 15C35 17.7614 32.7615 20 30 20H25V10Z" fill="#FF7262"/>
<path d="M35 25C35 27.7614 32.7615 30 30 30C27.2385 30 25 27.7614 25 25C25 22.2385 27.2385 20 30 20C32.7615 20 35 22.2385 35 25Z" fill="#1ABCFE"/>
</g>
<defs>
<clipPath id="clip0_1071_834">
<rect width="50" height="50" fill="white"/>
</clipPath>
</defs>
</svg>
