<svg width="50" height="50" viewBox="0 0 50 50" fill="none" xmlns="http://www.w3.org/2000/svg">
<path fill-rule="evenodd" clip-rule="evenodd" d="M29.2667 5.72282L39.5351 11.6515C39.8242 11.3452 40.162 11.0748 40.5451 10.8522C42.6747 9.62801 45.391 10.3549 46.628 12.4845C47.8522 14.6142 47.1253 17.3304 44.9957 18.5674C44.6154 18.786 44.2161 18.9423 43.8097 19.0396V30.9016C44.2117 30.9991 44.6067 31.1545 44.9829 31.3707C47.1253 32.6077 47.8522 35.324 46.6152 37.4536C45.391 39.5832 42.662 40.3101 40.5323 39.0859C40.1084 38.8422 39.74 38.5388 39.4315 38.1924L29.2257 44.0849C29.3716 44.5257 29.4506 44.9973 29.4506 45.4876C29.4506 47.936 27.4612 49.9381 25 49.9381C22.5388 49.9381 20.5494 47.9488 20.5494 45.4876C20.5494 45.0501 20.6123 44.6275 20.7295 44.2284L10.4638 38.3013C10.1777 38.6015 9.84469 38.8669 9.46766 39.0859C7.32527 40.3101 4.60902 39.5832 3.3848 37.4536C2.16057 35.324 2.88746 32.6077 5.0171 31.3707C5.39364 31.1543 5.78851 30.9988 6.19031 30.9013V19.0396C5.78387 18.9423 5.38455 18.786 5.00434 18.5674C2.8747 17.3432 2.14782 14.6142 3.37205 12.4845C4.59627 10.3549 7.32527 9.62801 9.45491 10.8522C9.83596 11.0736 10.1721 11.3423 10.4602 11.6465L20.7314 5.71623C20.613 5.31518 20.5494 4.89041 20.5494 4.45056C20.5494 1.98936 22.5388 0 25 0C27.4612 0 29.4506 1.98936 29.4506 4.45056C29.4506 4.89282 29.3863 5.31984 29.2667 5.72282ZM28.1968 7.54946L38.4897 13.4922C38.1715 14.6097 38.2883 15.8487 38.9128 16.9351C39.5393 18.025 40.56 18.7475 41.6928 19.0291V30.9059C41.6351 30.92 41.5776 30.9354 41.5205 30.9518L28.0773 7.66816C28.1179 7.62935 28.1577 7.58977 28.1968 7.54946ZM21.9255 7.67085L8.48252 30.9541C8.4244 30.9372 8.36595 30.9215 8.3072 30.907V19.0291C9.43997 18.7475 10.4607 18.025 11.0872 16.9351C11.713 15.8466 11.829 14.6048 11.5084 13.4856L21.7984 7.5445C21.8399 7.58747 21.8823 7.62959 21.9255 7.67085ZM26.2435 8.72565L39.6835 32.0036C39.3827 32.2904 39.1176 32.6246 38.9 33.003C38.6838 33.3793 38.5284 33.7742 38.4309 34.1762H11.5694C11.4719 33.7745 11.3164 33.3796 11.1 33.003C10.8815 32.627 10.617 32.2947 10.3177 32.0091L23.7602 8.72674C24.1536 8.84029 24.5696 8.90113 25 8.90113C25.4318 8.90113 25.849 8.8399 26.2435 8.72565ZM28.2913 42.4892L38.5174 36.5851C38.4867 36.4887 38.4593 36.3913 38.4352 36.2931H11.5637C11.5494 36.3508 11.534 36.4082 11.5175 36.4653L21.7937 42.3985C22.6028 41.5588 23.7395 41.037 25 41.037C26.3053 41.037 27.4778 41.5965 28.2913 42.4892Z" fill="#E535AB"/>
</svg>
