<svg width="50" height="50" viewBox="0 0 50 50" fill="none" xmlns="http://www.w3.org/2000/svg">
<g clip-path="url(#clip0_1071_820)">
<path d="M0 0H50V50H0V0Z" fill="#F7DF1E"/>
<path d="M13.1468 41.7839L16.9732 39.4683C17.7114 40.7771 18.3829 41.8844 19.9936 41.8844C21.5376 41.8844 22.511 41.2805 22.511 38.9313V22.9551H27.2097V38.9977C27.2097 43.8644 24.357 46.0795 20.195 46.0795C16.4362 46.0795 14.2543 44.1328 13.1468 41.7835" fill="black"/>
<path d="M29.7619 41.2805L33.5878 39.0653C34.5949 40.7101 35.9039 41.9183 38.2196 41.9183C40.1665 41.9183 41.408 40.9449 41.408 39.6023C41.408 37.9913 40.1327 37.4207 37.9846 36.4812L36.8102 35.9774C33.4202 34.5345 31.1713 32.7221 31.1713 28.8958C31.1713 25.3717 33.8563 22.6865 38.0519 22.6865C41.039 22.6865 43.1871 23.7271 44.7308 26.4457L41.0724 28.795C40.2668 27.3519 39.3944 26.7814 38.052 26.7814C36.6759 26.7814 35.8032 27.6541 35.8032 28.795C35.8032 30.2047 36.6759 30.7754 38.6894 31.6481L39.864 32.1515C43.8581 33.8633 46.1069 35.6084 46.1069 39.5352C46.1069 43.7644 42.7842 46.08 38.3204 46.08C33.9572 46.08 31.1378 43.9992 29.7619 41.2805Z" fill="black"/>
</g>
<defs>
<clipPath id="clip0_1071_820">
<rect width="50" height="50" fill="white"/>
</clipPath>
</defs>
</svg>
