<svg width="50" height="50" viewBox="0 0 50 50" fill="none" xmlns="http://www.w3.org/2000/svg">
<path d="M41.11 17.1678C40.5913 16.9891 40.0539 16.82 39.5005 16.6601C39.5914 16.2885 39.6749 15.9217 39.7491 15.5611C40.9675 9.64082 40.1709 4.87137 37.4507 3.30107C34.8423 1.79535 30.5764 3.3653 26.2682 7.11849C25.8539 7.4794 25.4384 7.86151 25.0231 8.26197C24.7464 7.99701 24.4702 7.74097 24.1946 7.49606C19.6794 3.4829 15.1536 1.7917 12.4361 3.36655C9.83015 4.87663 9.05844 9.36036 10.1552 14.9711C10.2611 15.513 10.3849 16.0665 10.5249 16.6291C9.88435 16.8112 9.26599 17.0052 8.67432 17.2116C3.38073 19.0591 0 21.9545 0 24.9578C0 28.0597 3.62921 31.1709 9.1429 33.0574C9.57802 33.2063 10.0295 33.347 10.4948 33.4807C10.3438 34.0892 10.2124 34.6856 10.1021 35.2673C9.05639 40.7806 9.87305 45.1584 12.472 46.659C15.1565 48.2086 19.6618 46.6158 24.0489 42.777C24.3956 42.4736 24.7436 42.1518 25.0922 41.8145C25.5441 42.2501 25.9952 42.6623 26.4439 43.049C30.6933 46.7094 34.8902 48.1875 37.4868 46.6828C40.1686 45.1287 41.0402 40.4259 39.9086 34.7041C39.8222 34.2671 39.7216 33.8207 39.6087 33.3664C39.9251 33.2727 40.2357 33.1761 40.5386 33.0756C46.2706 31.1745 50 28.1011 50 24.9578C50 21.9436 46.5102 19.0287 41.11 17.1678ZM39.8668 31.046C39.5934 31.1366 39.3129 31.2242 39.027 31.3091C38.3942 29.3038 37.5402 27.1714 36.4951 24.9683C37.4924 22.8176 38.3134 20.7125 38.9285 18.7202C39.44 18.8683 39.9364 19.0246 40.4148 19.1895C45.0417 20.784 47.864 23.1414 47.864 24.9578C47.864 26.8927 44.816 29.4044 39.8668 31.046ZM37.8132 35.1194C38.3136 37.6495 38.3851 39.9369 38.0536 41.7252C37.7558 43.332 37.157 44.4033 36.4165 44.8324C34.8407 45.7454 31.4711 44.5586 27.8369 41.4281C27.4203 41.0693 27.0007 40.6861 26.5797 40.2806C27.9886 38.7381 29.3967 36.945 30.7709 34.9536C33.188 34.7389 35.4717 34.3879 37.5426 33.9086C37.6446 34.3205 37.7352 34.7244 37.8132 35.1194ZM17.0461 44.6746C15.5066 45.2188 14.2805 45.2344 13.5393 44.8066C11.9621 43.896 11.3065 40.3811 12.2008 35.666C12.3033 35.1261 12.4252 34.5714 12.5657 34.0044C14.614 34.4578 16.8809 34.7841 19.3038 34.9807C20.6873 36.9293 22.136 38.7205 23.5959 40.2888C23.277 40.5971 22.9592 40.8906 22.6433 41.1671C20.7034 42.8645 18.7594 44.0689 17.0461 44.6746ZM9.83371 31.0342C7.39567 30.2 5.38223 29.1159 4.00212 27.9328C2.76201 26.8697 2.13589 25.8143 2.13589 24.9578C2.13589 23.1353 4.85029 20.8107 9.37741 19.2307C9.92672 19.0389 10.5017 18.8583 11.0985 18.6886C11.7241 20.7259 12.5449 22.8559 13.5354 25.0099C12.5321 27.1958 11.6997 29.3598 11.0679 31.421C10.6425 31.2986 10.2303 31.1697 9.83371 31.0342ZM12.2514 14.5605C11.3117 9.75334 11.9358 6.12701 13.5062 5.21704C15.1789 4.24765 18.8778 5.6298 22.7764 9.09496C23.0255 9.31644 23.2757 9.54825 23.5266 9.78808C22.0739 11.3496 20.6384 13.1273 19.2672 15.0645C16.9157 15.2826 14.6647 15.6331 12.5951 16.1024C12.465 15.5785 12.3497 15.0637 12.2514 14.5605ZM33.8191 19.8915C33.3244 19.0361 32.8165 18.2009 32.2987 17.3885C33.894 17.5903 35.4224 17.8583 36.8578 18.1863C36.4269 19.5688 35.8898 21.0143 35.2575 22.4961C34.804 21.6341 34.3243 20.7651 33.8191 19.8915ZM25.0239 11.3162C26.0091 12.3846 26.9957 13.5775 27.9662 14.8718C26.9882 14.8256 25.9982 14.8015 25 14.8015C24.0112 14.8015 23.0285 14.8251 22.0566 14.8705C23.028 13.5882 24.0232 12.3969 25.0239 11.3162ZM16.1722 19.9063C15.678 20.7642 15.2072 21.6285 14.7608 22.4945C14.1388 21.0178 13.6067 19.5657 13.172 18.1636C14.5986 17.8441 16.1198 17.5828 17.705 17.3847C17.1799 18.2046 16.6678 19.0462 16.1722 19.9063ZM17.7506 32.6835C16.1129 32.5006 14.5687 32.2527 13.1425 31.942C13.5841 30.5148 14.128 29.0318 14.7632 27.5233C15.2108 28.3886 15.6835 29.2533 16.1807 30.113C16.6872 30.9889 17.212 31.8468 17.7506 32.6835ZM25.0829 38.7503C24.0706 37.6569 23.0608 36.4474 22.0746 35.1464C23.032 35.184 24.008 35.2032 25 35.2032C26.0191 35.2032 27.0266 35.1802 28.0182 35.136C27.0446 36.4605 26.0615 37.6718 25.0829 38.7503ZM35.2779 27.4464C35.9462 28.9712 36.5096 30.4465 36.9569 31.8493C35.5072 32.1804 33.9419 32.447 32.2928 32.6452C32.8118 31.8218 33.3242 30.9722 33.8277 30.0983C34.337 29.2142 34.8206 28.3287 35.2779 27.4464ZM31.9775 29.0302C31.1959 30.3867 30.3934 31.6817 29.5788 32.9042C28.0951 33.0104 26.5623 33.0651 25 33.0651C23.444 33.0651 21.9305 33.0167 20.473 32.922C19.6256 31.6835 18.8057 30.3847 18.0291 29.0418C17.2546 27.7026 16.5419 26.3521 15.8959 25.0092C16.5417 23.6631 17.2527 22.3111 18.0228 20.9743L18.0226 20.9745C18.7948 19.6342 19.6074 18.3416 20.4471 17.1109C21.9341 16.9984 23.4589 16.9397 24.9999 16.9397C26.5479 16.9397 28.0747 16.9989 29.5613 17.1124C30.3881 18.3341 31.1952 19.6224 31.9704 20.9629C32.7544 22.3185 33.4746 23.6616 34.1259 24.9788C33.4766 26.3186 32.758 27.6752 31.9775 29.0302ZM36.3837 5.15343C38.0581 6.11997 38.7092 10.018 37.6572 15.1296C37.5901 15.4557 37.5146 15.788 37.4325 16.1246C35.3581 15.6455 33.1055 15.289 30.7471 15.0675C29.3732 13.109 27.9495 11.3285 26.5205 9.7871C26.9047 9.41711 27.2884 9.06431 27.6704 8.73138C31.3618 5.51567 34.8118 4.24605 36.3837 5.15343ZM25 20.4884C27.4658 20.4884 29.4648 22.4894 29.4648 24.9578C29.4648 27.4262 27.4658 29.4272 25 29.4272C22.5342 29.4272 20.5352 27.4262 20.5352 24.9578C20.5352 22.4894 22.5342 20.4884 25 20.4884Z" fill="#00D8FF"/>
</svg>
