<svg width="50" height="50" viewBox="0 0 50 50" fill="none" xmlns="http://www.w3.org/2000/svg">
<g clip-path="url(#clip0_1071_831)">
<path d="M42.935 27.8073C41.1955 27.8164 39.6836 28.2366 38.4177 28.8576C37.9532 27.9352 37.4887 27.1131 37.4068 26.5103C37.3157 25.8071 37.2064 25.3778 37.3157 24.5375C37.425 23.6972 37.9168 22.5008 37.9077 22.4094C37.8986 22.3181 37.7984 21.8888 36.7966 21.8797C35.7947 21.8706 34.9295 22.0715 34.8293 22.3364C34.7292 22.6012 34.5379 23.204 34.4104 23.8251C34.2374 24.7385 32.4068 27.9991 31.3594 29.707C31.0224 29.0403 30.731 28.4558 30.6672 27.99C30.5762 27.2867 30.4669 26.8574 30.5762 26.0171C30.6854 25.1769 31.1772 23.9804 31.1681 23.889C31.159 23.7977 31.0588 23.3684 30.057 23.3593C29.0552 23.3502 28.19 23.5511 28.0898 23.816C27.9896 24.0808 27.8803 24.7019 27.6709 25.3047C27.4614 25.9075 25.0297 31.3511 24.3922 32.7576C24.0643 33.4791 23.782 34.0545 23.5816 34.4473C23.5816 34.4473 23.5725 34.4747 23.5452 34.5203C23.3721 34.8583 23.272 35.041 23.272 35.041C23.272 35.041 23.272 35.041 23.272 35.0501C23.1353 35.2967 22.9896 35.525 22.9168 35.525C22.8621 35.525 22.7619 34.8674 22.935 33.9723C23.2993 32.0817 24.1645 29.1408 24.1554 29.0403C24.1554 28.9855 24.3193 28.474 23.5907 28.2092C22.8803 27.9443 22.6253 28.3827 22.5616 28.3827C22.4978 28.3827 22.4523 28.538 22.4523 28.538C22.4523 28.538 23.2446 25.2317 20.9404 25.2317C19.5015 25.2317 17.516 26.8117 16.5324 28.2366C15.9131 28.5745 14.5925 29.296 13.1809 30.0724C12.6435 30.3738 12.088 30.6752 11.5689 30.9583C11.5324 30.9218 11.496 30.8761 11.4596 30.8396C8.67269 27.853 3.51786 25.7431 3.73644 21.7336C3.81841 20.2722 4.31932 16.4362 13.6363 11.7781C21.3047 7.98776 27.4068 9.0381 28.4632 11.3671C29.9751 14.6917 25.1936 20.8659 17.2701 21.761C14.2465 22.0989 12.6618 20.9298 12.261 20.4914C11.8421 20.0347 11.7783 20.0073 11.6235 20.0987C11.3685 20.2357 11.5324 20.6467 11.6235 20.8842C11.8603 21.5052 12.8348 22.6012 14.4833 23.1401C15.9404 23.615 19.4833 23.8799 23.7729 22.2176C28.5725 20.3544 32.3248 15.1758 31.2228 10.8374C30.1208 6.43508 22.8348 4.98286 15.9404 7.43975C11.8421 8.9011 7.39764 11.2027 4.20092 14.1985C0.403109 17.7605 -0.197984 20.8568 0.0479176 22.1537C0.931342 26.7569 7.26103 29.7527 9.79291 31.9721C9.6654 32.0452 9.54701 32.1091 9.44682 32.1639C8.18089 32.7941 3.35393 35.3241 2.15174 38.0002C0.785623 41.0325 2.37032 43.2062 3.41768 43.4985C6.66905 44.4027 10.0115 42.777 11.8057 40.0917C13.5998 37.4065 13.3813 33.9175 12.5525 32.3192C12.5434 32.3009 12.5343 32.2827 12.516 32.2644C12.8439 32.0726 13.1809 31.8717 13.5088 31.6799C14.1554 31.2963 14.7929 30.94 15.3394 30.6478C15.0297 31.4972 14.802 32.511 14.6927 33.9723C14.5561 35.6894 15.2574 37.918 16.1772 38.7948C16.5871 39.1784 17.0698 39.1875 17.3794 39.1875C18.4541 39.1875 18.9368 38.2925 19.4741 37.233C20.1299 35.936 20.7219 34.429 20.7219 34.429C20.7219 34.429 19.9842 38.5025 21.9878 38.5025C22.7164 38.5025 23.4541 37.5526 23.782 37.0686V37.0777C23.782 37.0777 23.8002 37.0503 23.8366 36.9864C23.9095 36.8676 23.955 36.7946 23.955 36.7946V36.7763C24.2465 36.2648 24.9022 35.1049 25.8767 33.1777C27.1335 30.6934 28.3448 27.5881 28.3448 27.5881C28.3448 27.5881 28.4541 28.3462 28.8275 29.6066C29.0461 30.3464 29.5015 31.1592 29.8658 31.9447C29.5743 32.3557 29.3922 32.5841 29.3922 32.5841C29.3922 32.5841 29.3922 32.5841 29.4013 32.5932C29.1645 32.9037 28.9095 33.2417 28.6272 33.5705C27.6344 34.7578 26.4505 36.1187 26.2865 36.5114C26.0953 36.9772 26.1408 37.3152 26.5051 37.5892C26.7692 37.7901 27.2428 37.8175 27.7255 37.7901C28.618 37.7262 29.2465 37.507 29.5561 37.37C30.0388 37.1964 30.6035 36.9316 31.1317 36.5388C32.1062 35.8173 32.6982 34.7852 32.6435 33.4243C32.6162 32.6754 32.3703 31.9265 32.0698 31.2232C32.1609 31.0953 32.2428 30.9674 32.3339 30.8396C33.8731 28.5836 35.0661 26.1085 35.0661 26.1085C35.0661 26.1085 35.1754 26.8665 35.5488 28.127C35.731 28.7663 36.1044 29.4604 36.4323 30.1363C34.9842 31.3145 34.0916 32.6845 33.7729 33.5796C33.1991 35.2419 33.6454 35.9908 34.4924 36.1644C34.8749 36.2466 35.4213 36.0639 35.8221 35.8904C36.3321 35.726 36.9332 35.4428 37.5069 35.0227C38.4814 34.3011 39.4195 33.2965 39.3649 31.9356C39.3375 31.3145 39.1736 30.7026 38.9459 30.1089C40.1754 29.5974 41.7601 29.3143 43.782 29.5518C48.1171 30.0632 48.9732 32.7759 48.8093 33.9175C48.6454 35.0592 47.7346 35.6803 47.4341 35.8721C47.1335 36.0639 47.0333 36.1278 47.0607 36.2648C47.0971 36.4658 47.2428 36.4566 47.4978 36.4201C47.853 36.3562 49.7747 35.4976 49.8567 33.3969C49.9933 30.7117 47.4432 27.7799 42.935 27.8073ZM9.49236 39.1145C8.05338 40.6854 6.04974 41.2791 5.18453 40.7767C4.25557 40.2379 4.61987 37.918 6.38672 36.2557C7.4614 35.2419 8.84573 34.3011 9.76559 33.7257C9.97506 33.5979 10.2847 33.4152 10.6581 33.1869C10.7219 33.1503 10.7583 33.1321 10.7583 33.1321C10.8312 33.0864 10.904 33.0407 10.9769 32.9951C11.6235 35.3698 11.0042 37.4613 9.49236 39.1145ZM19.9659 31.9721C19.465 33.196 18.4177 36.3288 17.7802 36.1552C17.2337 36.0091 16.8967 33.6344 17.6709 31.2871C18.0625 30.1089 18.8913 28.7024 19.374 28.1544C20.1572 27.2775 21.0224 26.9853 21.2319 27.3415C21.496 27.8073 20.2756 31.2049 19.9659 31.9721ZM28.6089 36.1187C28.3995 36.2283 28.1991 36.3014 28.108 36.2466C28.0443 36.21 28.1991 36.0639 28.1991 36.0639C28.1991 36.0639 29.2829 34.8948 29.7109 34.3651C29.9568 34.0545 30.2483 33.6892 30.5579 33.2782V33.3969C30.5579 34.7944 29.21 35.7351 28.6089 36.1187ZM35.2756 34.5934C35.1208 34.4838 35.1481 34.1185 35.6672 32.9768C35.8676 32.5293 36.3412 31.7803 37.1517 31.0588C37.2428 31.3511 37.3066 31.6342 37.2975 31.8991C37.2884 33.6618 36.0315 34.3194 35.2756 34.5934Z" fill="#CD6799"/>
</g>
<defs>
<clipPath id="clip0_1071_831">
<rect width="50" height="50" fill="white"/>
</clipPath>
</defs>
</svg>
