<svg width="50" height="50" viewBox="0 0 50 50" fill="none" xmlns="http://www.w3.org/2000/svg">
<g clip-path="url(#clip0_1071_841)">
<path d="M0 25V50H25H50V25V0H25H0V25Z" fill="#007ACC"/>
<path d="M11.0569 25.1654L11.041 27.213L14.295 27.213H17.5489V36.459V45.7051H19.8505H22.1521V36.459L22.1521 27.213H25.4061H28.66V25.2051C28.66 24.094 28.6362 23.1654 28.6045 23.1416C28.5807 23.1098 24.6204 23.094 19.8188 23.1019L11.0807 23.1257L11.0569 25.1654Z" fill="white"/>
<path d="M40.345 23.0679C41.6149 23.3853 42.5831 23.9488 43.472 24.8695C43.9323 25.3615 44.6149 26.2583 44.6704 26.4726C44.6863 26.5361 42.5117 27.9964 41.1942 28.8139C41.1466 28.8456 40.9561 28.6393 40.7419 28.3218C40.099 27.3853 39.4244 26.9806 38.3927 26.9091C36.8768 26.806 35.9006 27.5996 35.9085 28.925C35.9085 29.3139 35.9641 29.5441 36.1228 29.8615C36.4561 30.552 37.0752 30.9647 39.0196 31.806C42.599 33.3456 44.1308 34.3615 45.0831 35.806C46.1466 37.4171 46.3847 39.9885 45.6625 41.9012C44.8688 43.9806 42.9006 45.3933 40.1307 45.8615C39.2736 46.0123 37.2419 45.9885 36.3212 45.8218C34.3133 45.4647 32.4085 44.4726 31.2339 43.171C30.7736 42.6631 29.8768 41.3377 29.9323 41.2425C29.9561 41.2107 30.1625 41.0837 30.3927 40.9488C30.6149 40.8218 31.4561 40.3377 32.2498 39.8774L33.6863 39.0441L33.9879 39.4885C34.4085 40.1314 35.3292 41.0123 35.8847 41.306C37.48 42.1472 39.6704 42.0282 40.7498 41.0599C41.2101 40.6393 41.4006 40.2028 41.4006 39.5599C41.4006 38.9806 41.3292 38.7266 41.0276 38.2901C40.6387 37.7345 39.845 37.2663 37.5911 36.2901C35.0117 35.179 33.9006 34.4885 32.8847 33.3933C32.2974 32.7583 31.7419 31.7425 31.5117 30.8933C31.3212 30.1869 31.2736 28.4171 31.4244 27.7028C31.9561 25.2107 33.8371 23.4726 36.5514 22.9568C37.4323 22.7901 39.48 22.8536 40.345 23.0679Z" fill="white"/>
</g>
<defs>
<clipPath id="clip0_1071_841">
<rect width="50" height="50" fill="white"/>
</clipPath>
</defs>
</svg>
